<svg xmlns="http://www.w3.org/2000/svg" viewBox="0 0 675.89061 675.89061"><circle cx="337.9453" cy="337.9453" r="337.9453"/><path d="M531.207,157.57237,483.89276,282.81586C466.034,330.089,405.5749,344.90375,368.82278,310.22q-.80805-.76246-1.5988-1.55322l0,0,161.6994-161.6994A9.86908,9.86908,0,0,1,531.207,157.57237Z" fill="#6c6"/><path d="M365.67067,307.06784c-34.6838-36.75212-19.869-97.21126,27.4041-115.07l125.24348-47.31422a9.869,9.869,0,0,1,10.60509,2.28364l-161.6994,161.6994-.00005,0Q366.43312,307.87587,365.67067,307.06784Z" fill="#9f9"/><path d="M144.68363,157.57237l47.31422,125.24349c17.85876,47.27309,78.31786,62.08789,115.07,27.40409q.80805-.76246,1.5988-1.55322l0,0-161.6994-161.6994A9.86908,9.86908,0,0,0,144.68363,157.57237Z" fill="#9f9"/><path d="M310.21994,307.06784c34.6838-36.75212,19.869-97.21126-27.4041-115.07L157.57236,144.68364a9.869,9.869,0,0,0-10.60509,2.28364l161.6994,161.6994,0,0Q309.45749,307.87587,310.21994,307.06784Z" fill="#6c6"/><path d="M531.207,518.31824,483.89276,393.07475c-17.85876-47.27309-78.31786-62.08789-115.07-27.40409q-.80805.76247-1.5988,1.55322l0,0,161.6994,161.6994A9.86908,9.86908,0,0,0,531.207,518.31824Z" fill="#9f9"/><path d="M365.67067,368.82277c-34.6838,36.75212-19.869,97.21126,27.4041,115.07L518.31825,531.207a9.869,9.869,0,0,0,10.60509-2.28364l-161.6994-161.6994-.00005,0Q366.43312,368.01474,365.67067,368.82277Z" fill="#6c6"/><path d="M144.68363,518.31824l47.31422-125.24349c17.85876-47.27309,78.31786-62.08789,115.07-27.40409q.80805.76247,1.5988,1.55322l0,0-161.6994,161.6994A9.86908,9.86908,0,0,1,144.68363,518.31824Z" fill="#6c6"/><path d="M310.21994,368.82277c34.6838,36.75212,19.869,97.21126-27.4041,115.07L157.57236,531.207a9.869,9.869,0,0,1-10.60509-2.28364l161.6994-161.6994,0,0Q309.45749,368.01474,310.21994,368.82277Z" fill="#9f9"/></svg>