<svg xmlns="http://www.w3.org/2000/svg" viewBox="0 0 387.85964 387.85966"><path d="M387.1915,13.5569,339.87727,138.80038c-17.85876,47.27309-78.31785,62.08789-115.07,27.4041q-.80805-.76248-1.5988-1.55323l0,0L384.90786,2.95181A9.86909,9.86909,0,0,1,387.1915,13.5569Z" fill="#6c6"/><path d="M221.65518,163.05236c-34.68379-36.75211-19.869-97.21125,27.4041-115.07L374.30277.66817a9.869,9.869,0,0,1,10.60509,2.28364L223.20845,164.65121l0,0Q222.41764,163.8604,221.65518,163.05236Z" fill="#9f9"/><path d="M.66815,13.5569,47.98237,138.80038c17.85876,47.27309,78.31786,62.08789,115.07,27.4041q.80805-.76248,1.5988-1.55323l0,0L2.95179,2.95181A9.869,9.869,0,0,0,.66815,13.5569Z" fill="#9f9"/><path d="M166.20446,163.05236c34.6838-36.75211,19.869-97.21125-27.4041-115.07L13.55688.66817A9.869,9.869,0,0,0,2.95179,2.95181l161.6994,161.6994,0,0Q165.442,163.8604,166.20446,163.05236Z" fill="#6c6"/><path d="M387.1915,374.30276,339.87727,249.05928c-17.85876-47.27309-78.31785-62.08789-115.07-27.4041q-.80805.76248-1.5988,1.55323l0,0,161.69941,161.6994A9.86909,9.86909,0,0,0,387.1915,374.30276Z" fill="#9f9"/><path d="M221.65518,224.8073c-34.68379,36.75211-19.869,97.21125,27.4041,115.07l125.24349,47.31422a9.869,9.869,0,0,0,10.60509-2.28364L223.20845,223.20845l0,0Q222.41764,223.99926,221.65518,224.8073Z" fill="#6c6"/><path d="M.66815,374.30276,47.98237,249.05928c17.85876-47.27309,78.31786-62.08789,115.07-27.4041q.80805.76248,1.5988,1.55323l0,0L2.95179,384.90785A9.869,9.869,0,0,1,.66815,374.30276Z" fill="#6c6"/><path d="M166.20446,224.8073c34.6838,36.75211,19.869,97.21125-27.4041,115.07L13.55688,387.19149a9.869,9.869,0,0,1-10.60509-2.28364l161.6994-161.6994,0,0Q165.442,223.99926,166.20446,224.8073Z" fill="#9f9"/></svg>